<svg width="20" height="21" viewBox="0 0 20 21" fill="none" xmlns="http://www.w3.org/2000/svg">
<path d="M4.16668 2.1693H7.50001V3.83596H5.83334V5.50263H4.16668V2.1693ZM4.16668 10.5026H2.50001V5.50263H4.16668V10.5026ZM5.83334 12.1693H4.16668V10.5026H5.83334V12.1693ZM7.50001 13.836V12.1693H5.83334V13.836H2.50001V12.1693H0.833344V13.836H2.50001V15.5026H5.83334V18.836H7.50001V15.5026H9.16668V13.836H7.50001ZM7.50001 13.836V15.5026H5.83334V13.836H7.50001ZM12.5 3.83596V5.50263H7.50001V3.83596H12.5ZM15.8333 5.50263H14.1667V3.83596H12.5V2.1693H15.8333V5.50263ZM15.8333 10.5026V5.50263H17.5V10.5026H15.8333ZM14.1667 12.1693V10.5026H15.8333V12.1693H14.1667ZM12.5 13.836V12.1693H14.1667V13.836H12.5ZM12.5 15.5026H10.8333V13.836H12.5V15.5026ZM12.5 15.5026H14.1667V18.836H12.5V15.5026Z" fill="white"/>
</svg>
