<svg width="107" height="43" viewBox="0 0 107 43" fill="none" xmlns="http://www.w3.org/2000/svg">
<path d="M0 19.7424L6.92079 2.40471H10.2028L17.1236 19.7424H14.1375L12.4965 15.5328H4.57026L2.92925 19.7424H0ZM7.68184 7.58671L5.51761 13.1281H11.5584L9.41798 7.58671C9.13259 6.87323 8.83927 6.06461 8.53802 5.16086C8.25527 6.05052 7.9712 6.86001 7.6858 7.58935L7.68184 7.58671Z" fill="black"/>
<path d="M18.9826 19.7424V6.2813H21.5274L21.6688 8.25527C22.7469 6.78074 24.1897 6.04347 25.9972 6.04347C27.3608 6.04347 28.4706 6.43192 29.3268 7.20883C30.183 7.98573 30.6111 9.15902 30.6111 10.7287V19.7424H27.8536V11.0616C27.8536 10.2689 27.6237 9.6426 27.1639 9.1828C26.7041 8.723 26.0303 8.4931 25.1424 8.4931C24.2725 8.47479 23.4277 8.78472 22.776 9.36117C22.118 9.93988 21.7811 10.7366 21.7652 11.7513V19.7424H18.9826Z" fill="black"/>
<path d="M37.1051 19.9088C35.1866 19.9088 34.2274 19.0844 34.2274 17.4354V8.3504L32.4437 8.37418V6.2813L34.2274 6.30508V2.59497L36.9399 2.35714V6.30508L39.1266 6.2813V8.37418L36.9399 8.3504V16.3652C36.9399 16.8567 37.0113 17.1857 37.154 17.3522C37.2967 17.5187 37.5887 17.6019 38.0339 17.6019C38.4019 17.6125 38.7696 17.5725 39.1266 17.483V19.671C38.762 19.7503 38.4096 19.8097 38.0696 19.8494C37.7495 19.8878 37.4275 19.9076 37.1051 19.9088Z" fill="black"/>
<path d="M47.1177 19.9802C45.8017 19.9802 44.6566 19.6908 43.6824 19.1121C42.7098 18.5362 41.9219 17.6946 41.4111 16.6863C40.8721 15.6478 40.6025 14.4309 40.6025 13.0356C40.6025 11.6263 40.8721 10.3975 41.4111 9.34928C41.9192 8.33603 42.7075 7.48995 43.6824 6.91154C44.6575 6.33283 45.8026 6.04347 47.1177 6.04347C48.4328 6.04347 49.5743 6.33283 50.5424 6.91154C51.5119 7.49281 52.2957 8.33844 52.8018 9.34928C53.3408 10.3957 53.6104 11.6166 53.6104 13.0118C53.6104 14.4212 53.3408 15.646 52.8018 16.6863C52.2931 17.6922 51.5097 18.5333 50.5424 19.1121C49.5752 19.6908 48.4337 19.9802 47.1177 19.9802ZM47.1177 17.6495C48.291 17.6495 49.2026 17.2412 49.8527 16.4247C50.5028 15.6081 50.8278 14.463 50.8278 12.9894C50.8278 11.5148 50.5028 10.3772 49.8527 9.57654C49.2026 8.77585 48.291 8.37551 47.1177 8.37551C45.9444 8.37551 45.0288 8.78774 44.3708 9.61221C43.7128 10.4367 43.3838 11.5703 43.3838 13.0131C43.3838 14.4877 43.7088 15.6293 44.3589 16.4379C45.0089 17.2465 45.9285 17.6503 47.1177 17.6495Z" fill="black"/>
<path d="M57.745 20C57.6351 20.0063 57.5253 19.9854 57.4254 19.9394C57.3254 19.8933 57.2382 19.8234 57.1716 19.7358C57.0265 19.5212 56.9559 19.265 56.9707 19.0064C56.9707 18.6021 57.1385 17.8534 57.4741 16.7603L61.4379 2.96756C61.6538 2.15014 61.7612 1.64674 61.7603 1.45736C61.7603 1.15611 61.6467 0.952635 61.4194 0.844291C61.1922 0.735947 60.776 0.683096 60.1735 0.683096L60.225 0.502079C61.0042 0.468081 61.7802 0.382009 62.5478 0.244435C63.2084 0.1242 63.6365 0.0422805 63.8255 0C63.9801 0 64.058 0.0594591 64.058 0.179694C63.995 0.479102 63.9066 0.7726 63.7938 1.05701L63.2137 2.96756L59.1654 17.0192C59.0496 17.3349 58.9798 17.6655 58.9579 18.0009C58.9579 18.1899 59.0187 18.285 59.1389 18.285C59.2935 18.285 59.5459 18.1079 59.8934 17.7565C60.2409 17.405 60.8288 16.7285 61.6546 15.731L61.8105 15.8631C60.787 17.4028 59.9762 18.4779 59.3781 19.0883C58.78 19.6988 58.2356 20.0026 57.745 20Z" fill="black"/>
<path d="M63.8875 20C62.864 20 62.3522 19.2002 62.3522 17.6006C62.3522 16.2326 62.7394 14.6757 63.5136 12.9299C64.2248 11.322 65.2411 9.86723 66.5063 8.64636C67.6946 7.48453 68.8991 6.90361 70.12 6.90361C70.9189 6.90361 71.4914 7.21763 71.8376 7.84567V7.82057C71.9601 7.44501 72.206 7.12187 72.5352 6.90361C72.8876 6.65433 73.21 6.52969 73.5024 6.52969C73.6491 6.52969 73.7217 6.59047 73.7217 6.71071C73.7217 6.77941 73.6143 7.19649 73.3993 7.96195L72.9739 9.43251L70.8017 17.0192C70.713 17.3419 70.6441 17.6698 70.5956 18.0009C70.5956 18.1899 70.6643 18.285 70.8017 18.285C70.9735 18.285 71.2466 18.1 71.6209 17.7301C71.9953 17.3601 72.5784 16.6933 73.3703 15.7297L73.5249 15.8618C72.5022 17.3901 71.6874 18.462 71.0805 19.0778C70.4736 19.6935 69.9253 20.0018 69.4355 20.0026C68.885 20.0026 68.6097 19.6802 68.6097 19.0355C68.6097 18.6135 68.7775 17.8565 69.1131 16.7642L69.861 14.3001H69.7711C68.8674 15.9508 67.8738 17.2962 66.7904 18.3365C65.655 19.4455 64.6874 20 63.8875 20ZM64.1716 16.788C64.1716 17.8635 64.4799 18.4008 65.0965 18.3999C65.625 18.3999 66.2742 18.0238 67.0441 17.2716C67.9073 16.404 68.6576 15.4309 69.277 14.3754C69.9352 13.3032 70.4471 12.1479 70.7991 10.9401C71.0827 10.002 71.2245 9.2973 71.2245 8.82605C71.2245 7.80339 70.855 7.29162 70.116 7.29074C69.2466 7.29074 68.3477 7.84567 67.4193 8.95554C66.4387 10.1387 65.6545 11.4717 65.0965 12.9035C64.4799 14.4687 64.1716 15.7636 64.1716 16.788Z" fill="black"/>
<path d="M77.1517 20C75.405 20 74.5317 19.2002 74.5317 17.6006C74.5317 16.9981 74.6911 16.1252 75.01 14.9818L78.4651 2.96888C78.68 2.15146 78.7875 1.64806 78.7875 1.45868C78.7875 1.15743 78.6738 0.95395 78.4453 0.845607C78.2167 0.737263 77.8031 0.684412 77.2006 0.684412L77.2522 0.503399C78.0313 0.46926 78.8073 0.383189 79.575 0.245755C80.2118 0.134769 80.6333 0.0532897 80.8394 0.00131989C81.0019 0.00131989 81.0838 0.0607749 81.0838 0.18101C81.0116 0.478733 80.9212 0.771729 80.813 1.05833L80.2356 2.96888L77.4609 12.4516H77.564C78.3197 10.9972 79.2848 9.66174 80.4285 8.48781C81.4617 7.4308 82.3606 6.90229 83.1252 6.90229C84.3214 6.90229 84.9195 7.68536 84.9195 9.2515C84.9195 10.5842 84.5323 12.1257 83.7581 13.8759C83.0449 15.4917 82.0387 16.9615 80.7905 18.211C79.5688 19.4045 78.3559 20.0009 77.1517 20ZM76.0419 18.207C76.0419 19.1451 76.4118 19.6137 77.1517 19.6129C78.0326 19.6129 78.9399 19.0403 79.8736 17.8952C80.8592 16.6679 81.6433 15.2915 82.1963 13.8178C82.8129 12.2252 83.1212 10.922 83.1212 9.90817C83.1212 8.89432 82.8288 8.38255 82.2439 8.37286C81.7365 8.37286 81.0935 8.75338 80.3149 9.51443C78.5373 11.3285 77.2135 13.5368 76.4515 15.9596C76.1784 16.8466 76.0419 17.5957 76.0419 18.207Z" fill="black"/>
<path d="M87.4999 20C86.5785 20 85.8324 19.7679 85.2617 19.3037C84.6909 18.8395 84.4046 18.2801 84.4028 17.6257C84.3987 17.5088 84.4177 17.3923 84.4587 17.2827C84.4998 17.1732 84.5621 17.0729 84.642 16.9875C84.7163 16.9064 84.8071 16.842 84.9082 16.7987C85.0094 16.7555 85.1186 16.7342 85.2286 16.7365C85.5907 16.7365 85.8351 16.9466 85.9646 17.368C86.1883 18.1608 86.4226 18.7285 86.6675 19.0711C86.9124 19.4138 87.2757 19.586 87.7575 19.5878C88.316 19.5878 88.7507 19.4028 89.0616 19.0328C89.3726 18.6629 89.5271 18.1595 89.5254 17.5226C89.5254 16.9386 89.2977 16.1388 88.8423 15.1232L87.706 12.6802C87.2542 11.8431 87.0109 10.9095 86.9965 9.95838C86.9935 9.53654 87.0753 9.1184 87.2371 8.72878C87.3988 8.33916 87.6371 7.986 87.9379 7.69024C88.2387 7.39448 88.5959 7.16216 88.9882 7.00706C89.3805 6.85196 89.8 6.77724 90.2217 6.78734C91.0735 6.78734 91.7574 7.01988 92.2736 7.48497C92.5168 7.68848 92.7122 7.943 92.846 8.23048C92.9798 8.51796 93.0487 8.83135 93.0479 9.14844C93.0563 9.38253 92.9755 9.61107 92.8219 9.78793C92.7506 9.86929 92.6623 9.93395 92.5632 9.97733C92.4641 10.0207 92.3567 10.0418 92.2485 10.039C91.9032 10.039 91.6667 9.83682 91.539 9.43252C91.5126 9.33871 91.469 9.18412 91.4069 8.96875L91.2906 8.55519C91.2734 8.49574 91.243 8.39664 91.2008 8.25923C91.1726 8.15844 91.1336 8.06098 91.0845 7.96855L90.9524 7.76244C90.9007 7.68059 90.8399 7.6048 90.7713 7.5365C90.6743 7.42862 90.5545 7.34371 90.4206 7.28794C90.2867 7.23217 90.142 7.20695 89.9971 7.21411C89.7778 7.20299 89.5592 7.24669 89.361 7.34127C89.1628 7.43586 88.9914 7.57834 88.8621 7.75583C88.5979 8.1161 88.4657 8.61509 88.4657 9.25282C88.4657 9.80247 88.6983 10.5679 89.1634 11.5492L90.3248 13.9882C90.7531 14.8687 90.9789 15.834 90.9854 16.8131C90.9898 17.2338 90.9065 17.6507 90.7409 18.0374C90.5753 18.4242 90.331 18.7722 90.0235 19.0593C89.3822 19.6864 88.541 20 87.4999 20Z" fill="black"/>
<path d="M6 38.1626C4.85867 38.1626 3.888 37.912 3.088 37.4106C2.29867 36.9093 1.696 36.2106 1.28 35.3146C0.864 34.408 0.656 33.3573 0.656 32.1626C0.656 30.8826 0.88 29.8 1.328 28.9146C1.78667 28.0293 2.42133 27.3573 3.232 26.8986C4.05333 26.4293 5.00267 26.1946 6.08 26.1946C7.02933 26.1946 7.856 26.36 8.56 26.6906C9.27467 27.0213 9.84533 27.4853 10.272 28.0826C10.7093 28.6693 10.9813 29.3573 11.088 30.1466L9.376 30.3866C9.216 29.4693 8.83733 28.7973 8.24 28.3706C7.64267 27.9333 6.91733 27.7146 6.064 27.7146C5.24267 27.7146 4.56 27.9013 4.016 28.2746C3.472 28.6373 3.06667 29.1546 2.8 29.8266C2.544 30.488 2.416 31.2666 2.416 32.1626C2.416 33.6773 2.74667 34.8026 3.408 35.5386C4.08 36.264 4.96 36.6266 6.048 36.6266C7.02933 36.6266 7.80267 36.3813 8.368 35.8906C8.93333 35.4 9.28533 34.7493 9.424 33.9386L11.104 34.1306C10.9867 34.984 10.6987 35.7146 10.24 36.3226C9.78133 36.92 9.18933 37.3786 8.464 37.6986C7.73867 38.008 6.91733 38.1626 6 38.1626ZM19.5576 29.8586C19.5363 29.368 19.4136 28.9573 19.1896 28.6266C18.9656 28.2853 18.6563 28.0293 18.2616 27.8586C17.8776 27.6773 17.419 27.5866 16.8856 27.5866C16.139 27.5866 15.563 27.7466 15.1576 28.0666C14.763 28.376 14.5656 28.7813 14.5656 29.2826C14.5656 29.7093 14.6883 30.0453 14.9336 30.2906C15.179 30.536 15.531 30.7386 15.9896 30.8986C16.459 31.048 17.0136 31.192 17.6536 31.3306C18.1336 31.4266 18.5976 31.5493 19.0456 31.6986C19.4936 31.848 19.8936 32.0453 20.2456 32.2906C20.6083 32.536 20.891 32.856 21.0936 33.2506C21.307 33.6453 21.4136 34.1306 21.4136 34.7066C21.4136 35.4 21.2376 36.008 20.8856 36.5306C20.5443 37.0426 20.043 37.4426 19.3816 37.7306C18.7203 38.0186 17.915 38.1626 16.9656 38.1626C16.0376 38.1626 15.2376 38.0026 14.5656 37.6826C13.9043 37.3626 13.3923 36.9146 13.0296 36.3386C12.667 35.7626 12.475 35.096 12.4536 34.3386L14.1016 34.1466C14.1336 34.9893 14.4056 35.6346 14.9176 36.0826C15.4403 36.5306 16.139 36.7546 17.0136 36.7546C17.803 36.7546 18.4376 36.6053 18.9176 36.3066C19.3976 36.008 19.6376 35.5066 19.6376 34.8026C19.6376 34.3333 19.5096 33.976 19.2536 33.7306C18.9976 33.4746 18.6616 33.2826 18.2456 33.1546C17.8296 33.016 17.371 32.8933 16.8696 32.7866C16.187 32.6373 15.5896 32.4666 15.0776 32.2746C14.5763 32.0826 14.155 31.8586 13.8136 31.6026C13.483 31.336 13.2323 31.0213 13.0616 30.6586C12.9016 30.296 12.8216 29.8746 12.8216 29.3946C12.8216 28.7546 12.987 28.1946 13.3176 27.7146C13.659 27.2346 14.1336 26.8613 14.7416 26.5946C15.3603 26.3173 16.075 26.1786 16.8856 26.1786C18.219 26.1786 19.2643 26.4986 20.0216 27.1386C20.779 27.768 21.179 28.6106 21.2216 29.6666L19.5576 29.8586ZM29.9014 29.8586C29.88 29.368 29.7574 28.9573 29.5334 28.6266C29.3094 28.2853 29 28.0293 28.6054 27.8586C28.2214 27.6773 27.7627 27.5866 27.2294 27.5866C26.4827 27.5866 25.9067 27.7466 25.5014 28.0666C25.1067 28.376 24.9094 28.7813 24.9094 29.2826C24.9094 29.7093 25.032 30.0453 25.2774 30.2906C25.5227 30.536 25.8747 30.7386 26.3334 30.8986C26.8027 31.048 27.3574 31.192 27.9974 31.3306C28.4774 31.4266 28.9414 31.5493 29.3894 31.6986C29.8374 31.848 30.2374 32.0453 30.5894 32.2906C30.952 32.536 31.2347 32.856 31.4374 33.2506C31.6507 33.6453 31.7574 34.1306 31.7574 34.7066C31.7574 35.4 31.5814 36.008 31.2294 36.5306C30.888 37.0426 30.3867 37.4426 29.7254 37.7306C29.064 38.0186 28.2587 38.1626 27.3094 38.1626C26.3814 38.1626 25.5814 38.0026 24.9094 37.6826C24.248 37.3626 23.736 36.9146 23.3734 36.3386C23.0107 35.7626 22.8187 35.096 22.7974 34.3386L24.4454 34.1466C24.4774 34.9893 24.7494 35.6346 25.2614 36.0826C25.784 36.5306 26.4827 36.7546 27.3574 36.7546C28.1467 36.7546 28.7814 36.6053 29.2614 36.3066C29.7414 36.008 29.9814 35.5066 29.9814 34.8026C29.9814 34.3333 29.8534 33.976 29.5974 33.7306C29.3414 33.4746 29.0054 33.2826 28.5894 33.1546C28.1734 33.016 27.7147 32.8933 27.2134 32.7866C26.5307 32.6373 25.9334 32.4666 25.4214 32.2746C24.92 32.0826 24.4987 31.8586 24.1574 31.6026C23.8267 31.336 23.576 31.0213 23.4054 30.6586C23.2454 30.296 23.1654 29.8746 23.1654 29.3946C23.1654 28.7546 23.3307 28.1946 23.6614 27.7146C24.0027 27.2346 24.4774 26.8613 25.0854 26.5946C25.704 26.3173 26.4187 26.1786 27.2294 26.1786C28.5627 26.1786 29.608 26.4986 30.3654 27.1386C31.1227 27.768 31.5227 28.6106 31.5654 29.6666L29.9014 29.8586ZM40.2649 38.0026V27.5546H41.9449V38.0026H40.2649ZM36.2009 27.8106V26.3386H45.9609V27.8106H36.2009ZM49.46 38.1626C48.596 38.1626 47.8387 37.9813 47.188 37.6186C46.548 37.2453 46.0467 36.712 45.684 36.0186C45.332 35.3253 45.156 34.488 45.156 33.5066C45.156 32.568 45.3213 31.752 45.652 31.0586C45.9933 30.3546 46.4787 29.8106 47.108 29.4266C47.7373 29.032 48.5 28.8346 49.396 28.8346C50.2493 28.8346 50.9853 29.0213 51.604 29.3946C52.2333 29.768 52.708 30.3333 53.028 31.0906C53.348 31.8373 53.4707 32.776 53.396 33.9066H46.58V32.6746H52.42L51.668 33.2506C51.8067 32.3226 51.668 31.5706 51.252 30.9946C50.8467 30.4186 50.2173 30.1306 49.364 30.1306C48.6173 30.1306 47.9987 30.392 47.508 30.9146C47.0173 31.4373 46.772 32.2906 46.772 33.4746C46.772 34.5946 47.0067 35.432 47.476 35.9866C47.9453 36.5306 48.612 36.8026 49.476 36.8026C50.1373 36.8026 50.6707 36.6533 51.076 36.3546C51.4813 36.056 51.732 35.64 51.828 35.1066L53.284 35.4426C53.1773 35.9866 52.9533 36.4613 52.612 36.8666C52.2707 37.272 51.8333 37.592 51.3 37.8266C50.7667 38.0506 50.1533 38.1626 49.46 38.1626ZM55.0423 38.0026V28.9946H56.5303L56.6423 30.4346C56.9409 29.8906 57.3303 29.4906 57.8103 29.2346C58.2903 28.968 58.8076 28.8346 59.3623 28.8346C59.9809 28.8346 60.5303 28.9893 61.0103 29.2986C61.4903 29.608 61.8423 30.0666 62.0663 30.6746C62.3436 30.0773 62.7436 29.624 63.2663 29.3146C63.7996 28.9946 64.3809 28.8346 65.0103 28.8346C65.9703 28.8346 66.7063 29.1173 67.2183 29.6826C67.7303 30.2373 67.9863 30.9786 67.9863 31.9066V38.0026H66.3383V32.1786C66.3383 31.5813 66.1943 31.1226 65.9063 30.8026C65.6183 30.472 65.1969 30.3066 64.6423 30.3066C64.1943 30.3066 63.7943 30.408 63.4423 30.6106C63.0903 30.8133 62.8129 31.1066 62.6103 31.4906C62.4183 31.864 62.3223 32.312 62.3223 32.8346V38.0026H60.6903V32.3226C60.6903 31.7253 60.5516 31.24 60.2743 30.8666C59.9969 30.4933 59.5596 30.3066 58.9623 30.3066C58.5143 30.3066 58.1196 30.4133 57.7783 30.6266C57.4369 30.84 57.1703 31.1333 56.9783 31.5066C56.7863 31.8693 56.6903 32.2853 56.6903 32.7546V38.0026H55.0423ZM70.261 40.6746V28.9946H71.765L71.877 30.5306C72.133 29.9973 72.5277 29.5813 73.061 29.2826C73.5943 28.984 74.2023 28.8346 74.885 28.8346C75.685 28.8346 76.373 29.0213 76.949 29.3946C77.525 29.768 77.9677 30.3013 78.277 30.9946C78.597 31.6773 78.757 32.488 78.757 33.4266C78.757 34.3866 78.597 35.224 78.277 35.9386C77.957 36.6426 77.5037 37.192 76.917 37.5866C76.3303 37.9706 75.6423 38.1626 74.853 38.1626C74.213 38.1626 73.6317 38.0293 73.109 37.7626C72.597 37.4853 72.1917 37.0746 71.893 36.5306V40.6746H70.261ZM71.893 33.9386C71.893 34.504 71.9997 35 72.213 35.4266C72.4263 35.8426 72.7303 36.168 73.125 36.4026C73.5197 36.6266 73.9837 36.7386 74.517 36.7386C75.3383 36.7386 75.9677 36.456 76.405 35.8906C76.853 35.3146 77.077 34.4933 77.077 33.4266C77.077 32.4133 76.853 31.6293 76.405 31.0746C75.9677 30.52 75.3437 30.2426 74.533 30.2426C74.0103 30.2426 73.5463 30.3546 73.141 30.5786C72.7463 30.8026 72.437 31.1226 72.213 31.5386C71.9997 31.944 71.893 32.424 71.893 32.9786V33.9386ZM80.5423 38.0026V25.3626H82.1743V38.0026H80.5423ZM86.9758 38.1626C86.0371 38.1626 85.3064 37.9333 84.7838 37.4746C84.2718 37.0053 84.0158 36.3973 84.0158 35.6506C84.0158 35.0533 84.1491 34.568 84.4158 34.1946C84.6931 33.8213 85.0504 33.5333 85.4878 33.3306C85.9251 33.1173 86.3998 32.9626 86.9118 32.8666L88.7998 32.5146C89.2798 32.4293 89.5944 32.3013 89.7438 32.1306C89.8931 31.9493 89.9678 31.7146 89.9678 31.4266C89.9678 31.0533 89.8344 30.744 89.5678 30.4986C89.3011 30.2426 88.8158 30.1146 88.1118 30.1146C87.4291 30.1146 86.8851 30.248 86.4798 30.5146C86.0744 30.7813 85.8771 31.192 85.8878 31.7466L84.3358 31.5866C84.3571 30.7013 84.7091 30.024 85.3918 29.5546C86.0851 29.0746 86.9918 28.8346 88.1118 28.8346C88.8584 28.8346 89.4878 28.936 89.9998 29.1386C90.5224 29.3306 90.9171 29.6293 91.1838 30.0346C91.4611 30.44 91.5998 30.9466 91.5998 31.5546V36.0986C91.5998 36.4186 91.6584 36.6266 91.7758 36.7226C91.8931 36.8186 92.0211 36.8666 92.1597 36.8666C92.2451 36.8666 92.3091 36.8666 92.3518 36.8666C92.3944 36.856 92.4211 36.8453 92.4318 36.8346H92.5278V38.0026C92.4211 38.0453 92.2771 38.0773 92.0958 38.0986C91.9251 38.12 91.7971 38.1306 91.7118 38.1306C91.2531 38.1306 90.8798 38.0186 90.5918 37.7946C90.3144 37.5706 90.1758 37.2293 90.1758 36.7706V36.4826C89.9518 36.984 89.5464 37.3893 88.9598 37.6986C88.3731 38.008 87.7118 38.1626 86.9758 38.1626ZM87.3918 36.8506C88.0318 36.8506 88.5811 36.7173 89.0398 36.4506C89.5091 36.1733 89.8238 35.7893 89.9838 35.2986V33.2346L90.1598 33.2986C90.0531 33.4053 89.8824 33.4906 89.6478 33.5546C89.4238 33.6186 89.1038 33.6933 88.6878 33.7786L87.3598 34.0506C86.6878 34.1893 86.2398 34.392 86.0158 34.6586C85.8024 34.9253 85.6957 35.2133 85.6957 35.5226C85.6957 35.9813 85.8558 36.3173 86.1758 36.5306C86.4958 36.744 86.9011 36.8506 87.3918 36.8506ZM96.033 38.1146C95.4357 38.1146 94.977 37.9866 94.657 37.7306C94.3477 37.464 94.193 37.0853 94.193 36.5946V26.4826L95.793 26.3226V35.9226C95.793 36.2533 95.841 36.472 95.937 36.5786C96.0437 36.6853 96.2463 36.7386 96.545 36.7386C96.705 36.7386 96.8383 36.7333 96.945 36.7226C97.0623 36.712 97.1637 36.696 97.249 36.6746V37.9866C97.0143 38.0293 96.7957 38.0613 96.593 38.0826C96.3903 38.104 96.2037 38.1146 96.033 38.1146ZM92.993 30.2746V28.9946H94.993V30.2746H92.993ZM97.249 30.2746H94.993V28.9946H97.249V30.2746ZM102.569 38.1626C101.705 38.1626 100.948 37.9813 100.297 37.6186C99.6574 37.2453 99.156 36.712 98.7934 36.0186C98.4414 35.3253 98.2654 34.488 98.2654 33.5066C98.2654 32.568 98.4307 31.752 98.7614 31.0586C99.1027 30.3546 99.588 29.8106 100.217 29.4266C100.847 29.032 101.609 28.8346 102.505 28.8346C103.359 28.8346 104.095 29.0213 104.713 29.3946C105.343 29.768 105.817 30.3333 106.137 31.0906C106.457 31.8373 106.58 32.776 106.505 33.9066H99.6894V32.6746H105.529L104.777 33.2506C104.916 32.3226 104.777 31.5706 104.361 30.9946C103.956 30.4186 103.327 30.1306 102.473 30.1306C101.727 30.1306 101.108 30.392 100.617 30.9146C100.127 31.4373 99.8814 32.2906 99.8814 33.4746C99.8814 34.5946 100.116 35.432 100.585 35.9866C101.055 36.5306 101.721 36.8026 102.585 36.8026C103.247 36.8026 103.78 36.6533 104.185 36.3546C104.591 36.056 104.841 35.64 104.937 35.1066L106.393 35.4426C106.287 35.9866 106.063 36.4613 105.721 36.8666C105.38 37.272 104.943 37.592 104.409 37.8266C103.876 38.0506 103.263 38.1626 102.569 38.1626Z" fill="black"/>
</svg>
